<svg width="9" height="12" viewBox="0 0 9 12" fill="none" xmlns="http://www.w3.org/2000/svg">
<path fill-rule="evenodd" clip-rule="evenodd" d="M4.25 0C5.76878 0 7 1.23122 7 2.75L7.0008 4.26557C7.98699 4.38895 8.75 5.23037 8.75 6.25V9.75C8.75 10.8546 7.85457 11.75 6.75 11.75H2C0.89543 11.75 0 10.8546 0 9.75V6.25C0 5.31809 0.637377 4.53504 1.49998 4.31301L1.5 2.75C1.5 1.23122 2.73122 0 4.25 0ZM4.25 1.2C3.39396 1.2 2.7 1.89396 2.7 2.75L2.699 4.25H5.8V2.75C5.8 1.89396 5.10604 1.2 4.25 1.2Z" fill="#262626"/>
</svg>
