<svg width="24" height="24" viewBox="0 0 24 24" fill="none" xmlns="http://www.w3.org/2000/svg">
<path fill-rule="evenodd" clip-rule="evenodd" d="M12.1036 0.353508L14.4676 2.71696H20.5C22.1569 2.71696 23.5 4.06011 23.5 5.71696V20.717C23.5 22.3738 22.1569 23.717 20.5 23.717H3C1.34315 23.717 0 22.3738 0 20.717V5.71696C0 4.06011 1.34315 2.71696 3 2.71696H9.03L11.3962 0.353349C11.5918 0.158522 11.9082 0.158593 12.1036 0.353508ZM11.7495 2.12061L9.94366 3.92446C9.75615 4.11176 9.50197 4.21696 9.23694 4.21696H3C2.17157 4.21696 1.5 4.88853 1.5 5.71696V20.717C1.5 21.5454 2.17157 22.217 3 22.217H4C4 19.4555 6.23858 17.217 9 17.217H14.5C17.2614 17.217 19.5 19.4555 19.5 22.217H20.5C21.3284 22.217 22 21.5454 22 20.717V5.71696C22 4.88853 21.3284 4.21696 20.5 4.21696H14.2605C13.9953 4.21696 13.741 4.11163 13.5534 3.92414L11.7495 2.12061ZM14.5 18.717C16.433 18.717 18 20.284 18 22.217H5.5C5.5 20.284 7.067 18.717 9 18.717H14.5ZM11.75 6.21696C14.3734 6.21696 16.5 8.34361 16.5 10.967C16.5 13.5903 14.3734 15.717 11.75 15.717C9.12665 15.717 7 13.5903 7 10.967C7 8.34361 9.12665 6.21696 11.75 6.21696ZM8.5 10.967C8.5 9.17204 9.95507 7.71696 11.75 7.71696C13.5449 7.71696 15 9.17204 15 10.967C15 12.7619 13.5449 14.217 11.75 14.217C9.95507 14.217 8.5 12.7619 8.5 10.967Z" fill="#262626"/>
</svg>
