<svg width="24" height="24" viewBox="0 0 24 24" fill="none" xmlns="http://www.w3.org/2000/svg">
<path fill-rule="evenodd" clip-rule="evenodd" d="M12.1036 0.146232L14.4676 2.50969H20.5C22.1569 2.50969 23.5 3.85283 23.5 5.50969V20.5097C23.5 22.1665 22.1569 23.5097 20.5 23.5097H3C1.34315 23.5097 0 22.1665 0 20.5097V5.50969C0 3.85283 1.34315 2.50969 3 2.50969H9.03L11.3962 0.146073C11.5918 -0.0487532 11.9082 -0.0486819 12.1036 0.146232ZM11.7495 1.91333L9.94366 3.71719C9.75615 3.90448 9.50197 4.00969 9.23694 4.00969H3C2.17157 4.00969 1.5 4.68126 1.5 5.50969V20.5097C1.5 21.3381 2.17157 22.0097 3 22.0097H4C4 19.2483 6.23858 17.0097 9 17.0097H14.5C17.2614 17.0097 19.5 19.2483 19.5 22.0097H20.5C21.3284 22.0097 22 21.3381 22 20.5097V5.50969C22 4.68126 21.3284 4.00969 20.5 4.00969H14.2605C13.9953 4.00969 13.741 3.90436 13.5534 3.71687L11.7495 1.91333ZM14.5 18.5097C16.433 18.5097 18 20.0767 18 22.0097H5.5C5.5 20.0767 7.067 18.5097 9 18.5097H14.5ZM11.75 6.00969C14.3734 6.00969 16.5 8.13633 16.5 10.7597C16.5 13.383 14.3734 15.5097 11.75 15.5097C9.12665 15.5097 7 13.383 7 10.7597C7 8.13633 9.12665 6.00969 11.75 6.00969ZM8.5 10.7597C8.5 8.96476 9.95507 7.50969 11.75 7.50969C13.5449 7.50969 15 8.96476 15 10.7597C15 12.5546 13.5449 14.0097 11.75 14.0097C9.95507 14.0097 8.5 12.5546 8.5 10.7597Z" fill="black" fill-opacity="0.4"/>
</svg>
