<svg width="22" height="25" viewBox="0 0 22 25" fill="none" xmlns="http://www.w3.org/2000/svg">
<path fill-rule="evenodd" clip-rule="evenodd" d="M21.7 10.7059L11.7 0.904491C11.3111 0.523373 10.6889 0.523373 10.3 0.904491L0.300019 10.7059C0.108129 10.894 0 11.1514 0 11.4201V23.5L0.00804008 23.5899C0.0503849 23.8231 0.25454 24 0.5 24L8.5 23.9997C8.77613 23.9996 8.99998 23.7758 9 23.4997V18L9.00509 17.8237C9.09634 16.2489 9.40232 15 11 15L11.1763 15.0051C12.6344 15.0896 12.9558 16.2155 12.9955 17.6501L13 18V23.4997C13 23.7758 13.2239 23.9996 13.5 23.9997L21.5 24L21.5899 23.9919C21.8231 23.9496 22 23.7455 22 23.5V11.4201C22 11.1514 21.8919 10.894 21.7 10.7059ZM1.5 11.6301L11 2.31877L20.5 11.6301V22.4999L14.5 22.4997V18L14.4953 17.6307C14.4284 15.2006 13.5423 13.6397 11.263 13.5076L11.0433 13.5006C8.55145 13.5 7.66187 15.0746 7.5076 17.737L7.50063 17.9567L7.50011 22.4997L1.5 22.4999V11.6301Z" fill="#262626"/>
</svg>
