<svg width="33" height="32" viewBox="0 0 33 32" fill="none" xmlns="http://www.w3.org/2000/svg">
<g filter="url(#filter0_d_0_3069)">
<path fill-rule="evenodd" clip-rule="evenodd" d="M16.5001 23.7501C22.9894 23.7501 28.2501 18.4894 28.2501 12.0001C28.2501 5.51075 22.9894 0.250092 16.5001 0.250092C14.9374 0.250092 13.416 0.555692 12.0023 1.1419C10.5766 1.73309 9.28191 2.60127 8.19159 3.69159C7.42913 4.45405 6.7753 5.31646 6.24886 6.25373L6.25 2.49999L6.24315 2.39822C6.19349 2.03215 5.8797 1.74999 5.5 1.74999C5.08579 1.74999 4.75 2.08578 4.75 2.49999V7.98507L4.75685 8.08684C4.80651 8.45292 5.1203 8.73507 5.5 8.73507H11.1014L11.2032 8.72823C11.5693 8.67856 11.8514 8.36477 11.8514 7.98507C11.8514 7.57086 11.5156 7.23507 11.1014 7.23507L7.42306 7.23403C7.90349 6.32105 8.52048 5.48402 9.25225 4.75225C10.2039 3.80056 11.3336 3.04303 12.5769 2.5275C13.8092 2.01649 15.1355 1.75009 16.5001 1.75009C22.161 1.75009 26.7501 6.33917 26.7501 12.0001C26.7501 17.661 22.161 22.2501 16.5001 22.2501C13.5672 22.2501 10.8352 21.0127 8.90355 18.8817C8.62536 18.5748 8.15106 18.5516 7.84417 18.8297C7.53728 19.1079 7.51401 19.5822 7.7922 19.8891C10.0053 22.3306 13.1394 23.7501 16.5001 23.7501ZM17.1618 4.93603C17.1121 4.56995 16.7983 4.2878 16.4186 4.2878C16.0044 4.2878 15.6686 4.62359 15.6686 5.0378V11.6893L12.3263 15.0317L12.2536 15.1158C12.0358 15.4094 12.06 15.8261 12.3263 16.0923C12.6192 16.3852 13.094 16.3852 13.3869 16.0923L17.1686 12.3107V5.0378L17.1618 4.93603Z" fill="#262626"/>
</g>
<defs>
<filter id="filter0_d_0_3069" x="0.75" y="0.250092" width="31.5001" height="31.5" filterUnits="userSpaceOnUse" color-interpolation-filters="sRGB">
<feFlood flood-opacity="0" result="BackgroundImageFix"/>
<feColorMatrix in="SourceAlpha" type="matrix" values="0 0 0 0 0 0 0 0 0 0 0 0 0 0 0 0 0 0 127 0" result="hardAlpha"/>
<feOffset dy="4"/>
<feGaussianBlur stdDeviation="2"/>
<feComposite in2="hardAlpha" operator="out"/>
<feColorMatrix type="matrix" values="0 0 0 0 0 0 0 0 0 0 0 0 0 0 0 0 0 0 0.25 0"/>
<feBlend mode="normal" in2="BackgroundImageFix" result="effect1_dropShadow_0_3069"/>
<feBlend mode="normal" in="SourceGraphic" in2="effect1_dropShadow_0_3069" result="shape"/>
</filter>
</defs>
</svg>
