<svg width="33" height="33" viewBox="0 0 33 33" fill="none" xmlns="http://www.w3.org/2000/svg">
<g filter="url(#filter0_d_0_3087)">
<path fill-rule="evenodd" clip-rule="evenodd" d="M8.11548 0.502144C8.18841 0.532575 8.24638 0.590549 8.27681 0.663474L9.06017 2.54073L11.0876 2.70565C11.2528 2.71908 11.3757 2.86384 11.3623 3.02898C11.3559 3.10774 11.3187 3.18079 11.2587 3.23227L9.71542 4.55739L10.1851 6.53657C10.2234 6.69778 10.1237 6.85948 9.96247 6.89773C9.88558 6.91598 9.80461 6.90315 9.73712 6.86204L7.99995 5.80376L6.26277 6.86204C6.12128 6.94824 5.93669 6.90341 5.85049 6.76192C5.80938 6.69443 5.79656 6.61345 5.8148 6.53657L6.28447 4.55739L4.74117 3.23227C4.61546 3.12433 4.60106 2.93493 4.70899 2.80923C4.76047 2.74927 4.83352 2.71205 4.91228 2.70565L6.93973 2.54073L7.72309 0.663474C7.78689 0.510568 7.96257 0.438338 8.11548 0.502144ZM8.11548 9.25214C8.18841 9.28257 8.24638 9.34055 8.27681 9.41347L9.06017 11.2907L11.0876 11.4556C11.2528 11.4691 11.3757 11.6138 11.3623 11.779C11.3559 11.8577 11.3187 11.9308 11.2587 11.9823L9.71542 13.3074L10.1851 15.2866C10.2234 15.4478 10.1237 15.6095 9.96247 15.6477C9.88558 15.666 9.80461 15.6532 9.73712 15.612L7.99995 14.5538L6.26277 15.612C6.12128 15.6982 5.93669 15.6534 5.85049 15.5119C5.80938 15.4444 5.79656 15.3635 5.8148 15.2866L6.28447 13.3074L4.74117 11.9823C4.61546 11.8743 4.60106 11.6849 4.70899 11.5592C4.76047 11.4993 4.83352 11.4621 4.91228 11.4556L6.93973 11.2907L7.72309 9.41347C7.78689 9.26057 7.96257 9.18834 8.11548 9.25214ZM8.27681 18.1635C8.24638 18.0905 8.18841 18.0326 8.11548 18.0021C7.96257 17.9383 7.78689 18.0106 7.72309 18.1635L6.93973 20.0407L4.91228 20.2056C4.83352 20.2121 4.76047 20.2493 4.70899 20.3092C4.60106 20.4349 4.61546 20.6243 4.74117 20.7323L6.28447 22.0574L5.8148 24.0366C5.79656 24.1135 5.80938 24.1944 5.85049 24.2619C5.93669 24.4034 6.12128 24.4482 6.26277 24.362L7.99995 23.3038L9.73712 24.362C9.80461 24.4032 9.88558 24.416 9.96247 24.3977C10.1237 24.3595 10.2234 24.1978 10.1851 24.0366L9.71542 22.0574L11.2587 20.7323C11.3187 20.6808 11.3559 20.6077 11.3623 20.529C11.3757 20.3638 11.2528 20.2191 11.0876 20.2056L9.06017 20.0407L8.27681 18.1635ZM27.9999 20.75H14.4999L14.3982 20.7568C14.0321 20.8065 13.7499 21.1203 13.7499 21.5C13.7499 21.9142 14.0857 22.25 14.4999 22.25H27.9999L28.1017 22.2432C28.4678 22.1935 28.7499 21.8797 28.7499 21.5C28.7499 21.0858 28.4142 20.75 27.9999 20.75ZM27.9999 12H14.4999L14.3982 12.0068C14.0321 12.0565 13.7499 12.3703 13.7499 12.75C13.7499 13.1642 14.0857 13.5 14.4999 13.5H27.9999L28.1017 13.4932C28.4678 13.4435 28.7499 13.1297 28.7499 12.75C28.7499 12.3358 28.4142 12 27.9999 12ZM27.9999 3.25H14.4999L14.3982 3.25685C14.0321 3.30651 13.7499 3.6203 13.7499 4C13.7499 4.41421 14.0857 4.75 14.4999 4.75H27.9999L28.1017 4.74315C28.4678 4.69349 28.7499 4.37969 28.7499 4C28.7499 3.58579 28.4142 3.25 27.9999 3.25Z" fill="#262626"/>
</g>
<defs>
<filter id="filter0_d_0_3087" x="0.636597" y="0.478928" width="32.1134" height="31.927" filterUnits="userSpaceOnUse" color-interpolation-filters="sRGB">
<feFlood flood-opacity="0" result="BackgroundImageFix"/>
<feColorMatrix in="SourceAlpha" type="matrix" values="0 0 0 0 0 0 0 0 0 0 0 0 0 0 0 0 0 0 127 0" result="hardAlpha"/>
<feOffset dy="4"/>
<feGaussianBlur stdDeviation="2"/>
<feComposite in2="hardAlpha" operator="out"/>
<feColorMatrix type="matrix" values="0 0 0 0 0 0 0 0 0 0 0 0 0 0 0 0 0 0 0.25 0"/>
<feBlend mode="normal" in2="BackgroundImageFix" result="effect1_dropShadow_0_3087"/>
<feBlend mode="normal" in="SourceGraphic" in2="effect1_dropShadow_0_3087" result="shape"/>
</filter>
</defs>
</svg>
