<svg width="33" height="26" viewBox="0 0 33 26" fill="none" xmlns="http://www.w3.org/2000/svg">
<g filter="url(#filter0_d_0_3123)">
<path fill-rule="evenodd" clip-rule="evenodd" d="M20.5 0.25C23.1234 0.25 25.25 2.37665 25.25 5C25.25 7.62335 23.1234 9.75 20.5 9.75C17.8766 9.75 15.75 7.62335 15.75 5C15.75 2.37665 17.8766 0.25 20.5 0.25ZM9.74315 5.39823C9.69349 5.03215 9.3797 4.75 9 4.75L8.89823 4.75685L8.80062 4.77679C8.48318 4.86411 8.25 5.15482 8.25 5.5V8.25H5.5L5.39823 8.25685C5.03215 8.30651 4.75 8.6203 4.75 9L4.75685 9.10177C4.80651 9.46785 5.1203 9.75 5.5 9.75H8.25V12.5L8.25685 12.6018C8.30651 12.9678 8.6203 13.25 9 13.25L9.10177 13.2432C9.46785 13.1935 9.75 12.8797 9.75 12.5V9.75H12.5L12.6018 9.74315C12.9678 9.69349 13.25 9.3797 13.25 9L13.2432 8.89823C13.1935 8.53215 12.8797 8.25 12.5 8.25H9.75V5.5L9.74315 5.39823ZM18 11.25L17.7836 11.2544C14.9844 11.3679 12.75 13.673 12.75 16.5V17.25L12.7568 17.3518C12.8065 17.7178 13.1203 18 13.5 18C13.9142 18 14.25 17.6642 14.25 17.25V16.5L14.2552 16.3008C14.3587 14.3224 15.9957 12.75 18 12.75H23L23.1992 12.7552C25.1776 12.8587 26.75 14.4957 26.75 16.5V17.25L26.7568 17.3518C26.8065 17.7178 27.1203 18 27.5 18C27.9142 18 28.25 17.6642 28.25 17.25V16.5L28.2456 16.2836C28.1321 13.4844 25.827 11.25 23 11.25H18ZM17.25 5C17.25 3.20507 18.7051 1.75 20.5 1.75C22.2949 1.75 23.75 3.20507 23.75 5C23.75 6.79493 22.2949 8.25 20.5 8.25C18.7051 8.25 17.25 6.79493 17.25 5Z" fill="#262626"/>
</g>
<defs>
<filter id="filter0_d_0_3123" x="0.75" y="0.25" width="31.5" height="25.75" filterUnits="userSpaceOnUse" color-interpolation-filters="sRGB">
<feFlood flood-opacity="0" result="BackgroundImageFix"/>
<feColorMatrix in="SourceAlpha" type="matrix" values="0 0 0 0 0 0 0 0 0 0 0 0 0 0 0 0 0 0 127 0" result="hardAlpha"/>
<feOffset dy="4"/>
<feGaussianBlur stdDeviation="2"/>
<feComposite in2="hardAlpha" operator="out"/>
<feColorMatrix type="matrix" values="0 0 0 0 0 0 0 0 0 0 0 0 0 0 0 0 0 0 0.25 0"/>
<feBlend mode="normal" in2="BackgroundImageFix" result="effect1_dropShadow_0_3123"/>
<feBlend mode="normal" in="SourceGraphic" in2="effect1_dropShadow_0_3123" result="shape"/>
</filter>
</defs>
</svg>
