<svg width="33" height="32" viewBox="0 0 33 32" fill="none" xmlns="http://www.w3.org/2000/svg">
<g filter="url(#filter0_d_0_3076)">
<path fill-rule="evenodd" clip-rule="evenodd" d="M20.5 0.25H23.5C26.0505 0.25 28.1315 2.26014 28.2451 4.78257L28.25 5V8C28.25 8.41421 27.9142 8.75 27.5 8.75C27.1203 8.75 26.8065 8.46785 26.7568 8.10177L26.75 8V5C26.75 3.26697 25.3935 1.85075 23.6844 1.75514L23.5 1.75H20.5C20.0858 1.75 19.75 1.41421 19.75 1C19.75 0.620304 20.0322 0.306509 20.3982 0.256847L20.5 0.25ZM19 6.75C20.5188 6.75 21.75 7.98122 21.75 9.5V14.5C21.75 16.0188 20.5188 17.25 19 17.25H14C12.4812 17.25 11.25 16.0188 11.25 14.5V9.5C11.25 7.98122 12.4812 6.75 14 6.75H19ZM6.24315 15.8982C6.19349 15.5322 5.8797 15.25 5.5 15.25C5.08579 15.25 4.75 15.5858 4.75 16V19L4.75489 19.2174C4.86853 21.7399 6.94952 23.75 9.5 23.75H12.5L12.6018 23.7432C12.9678 23.6935 13.25 23.3797 13.25 23C13.25 22.5858 12.9142 22.25 12.5 22.25H9.5L9.31558 22.2449C7.60645 22.1492 6.25 20.733 6.25 19V16L6.24315 15.8982ZM28.2432 15.8982C28.1935 15.5322 27.8797 15.25 27.5 15.25C27.0858 15.25 26.75 15.5858 26.75 16V19L26.7449 19.1844C26.6492 20.8935 25.233 22.25 23.5 22.25H20.5L20.3982 22.2568C20.0322 22.3065 19.75 22.6203 19.75 23C19.75 23.4142 20.0858 23.75 20.5 23.75H23.5L23.7174 23.7451C26.2399 23.6315 28.25 21.5505 28.25 19V16L28.2432 15.8982ZM14 8.25H19C19.6904 8.25 20.25 8.80964 20.25 9.5V14.5C20.25 15.1904 19.6904 15.75 19 15.75H14C13.3096 15.75 12.75 15.1904 12.75 14.5V9.5C12.75 8.80964 13.3096 8.25 14 8.25ZM12.5 0.25H9.5L9.28257 0.254888C6.76014 0.36853 4.75 2.44952 4.75 5V8L4.75685 8.10177C4.80651 8.46785 5.1203 8.75 5.5 8.75C5.91421 8.75 6.25 8.41421 6.25 8V5L6.25514 4.81558C6.35075 3.10645 7.76697 1.75 9.5 1.75H12.5L12.6018 1.74315C12.9678 1.69349 13.25 1.3797 13.25 1C13.25 0.585786 12.9142 0.25 12.5 0.25Z" fill="#262626"/>
</g>
<defs>
<filter id="filter0_d_0_3076" x="0.75" y="0.25" width="31.5" height="31.5" filterUnits="userSpaceOnUse" color-interpolation-filters="sRGB">
<feFlood flood-opacity="0" result="BackgroundImageFix"/>
<feColorMatrix in="SourceAlpha" type="matrix" values="0 0 0 0 0 0 0 0 0 0 0 0 0 0 0 0 0 0 127 0" result="hardAlpha"/>
<feOffset dy="4"/>
<feGaussianBlur stdDeviation="2"/>
<feComposite in2="hardAlpha" operator="out"/>
<feColorMatrix type="matrix" values="0 0 0 0 0 0 0 0 0 0 0 0 0 0 0 0 0 0 0.25 0"/>
<feBlend mode="normal" in2="BackgroundImageFix" result="effect1_dropShadow_0_3076"/>
<feBlend mode="normal" in="SourceGraphic" in2="effect1_dropShadow_0_3076" result="shape"/>
</filter>
</defs>
</svg>
