<svg width="31" height="31" viewBox="0 0 31 31" fill="none" xmlns="http://www.w3.org/2000/svg">
<g filter="url(#filter0_d_0_3098)">
<path fill-rule="evenodd" clip-rule="evenodd" d="M27 3.75C27 1.67893 25.3211 0 23.25 0H8C5.92893 0 4.25 1.67893 4.25 3.75V19C4.25 21.0711 5.92893 22.75 8 22.75H23.25C25.3211 22.75 27 21.0711 27 19V3.75ZM8 1.5H23.25C24.4926 1.5 25.5 2.50736 25.5 3.75V19C25.5 20.2426 24.4926 21.25 23.25 21.25H18.74L18.7409 14.2893H21.6892L22.1307 11.0895H18.7409V8.54659L18.7425 8.42745C18.767 7.56645 19.0779 6.98882 20.4373 6.98882H22.25V4H19.6086L19.3802 4.00386C16.8914 4.0888 15.2059 5.57175 15.2059 8.22968V11.0895H12.25V14.2893H15.2059L15.205 21.25H8C6.75736 21.25 5.75 20.2426 5.75 19V3.75C5.75 2.50736 6.75736 1.5 8 1.5Z" fill="#262626"/>
</g>
<defs>
<filter id="filter0_d_0_3098" x="0.25" y="0" width="30.75" height="30.75" filterUnits="userSpaceOnUse" color-interpolation-filters="sRGB">
<feFlood flood-opacity="0" result="BackgroundImageFix"/>
<feColorMatrix in="SourceAlpha" type="matrix" values="0 0 0 0 0 0 0 0 0 0 0 0 0 0 0 0 0 0 127 0" result="hardAlpha"/>
<feOffset dy="4"/>
<feGaussianBlur stdDeviation="2"/>
<feComposite in2="hardAlpha" operator="out"/>
<feColorMatrix type="matrix" values="0 0 0 0 0 0 0 0 0 0 0 0 0 0 0 0 0 0 0.25 0"/>
<feBlend mode="normal" in2="BackgroundImageFix" result="effect1_dropShadow_0_3098"/>
<feBlend mode="normal" in="SourceGraphic" in2="effect1_dropShadow_0_3098" result="shape"/>
</filter>
</defs>
</svg>
