<svg width="33" height="32" viewBox="0 0 33 32" fill="none" xmlns="http://www.w3.org/2000/svg">
<g filter="url(#filter0_d_0_3105)">
<path fill-rule="evenodd" clip-rule="evenodd" d="M28.25 12C28.25 5.51065 22.9893 0.25 16.5 0.25C16.0858 0.25 15.75 0.585786 15.75 1C15.75 1.41421 16.0858 1.75 16.5 1.75C22.1609 1.75 26.75 6.33908 26.75 12C26.75 17.6609 22.1609 22.25 16.5 22.25C13.5671 22.25 10.8351 21.0126 8.90346 18.8816C8.62527 18.5747 8.15096 18.5515 7.84407 18.8297C7.53718 19.1078 7.51391 19.5821 7.7921 19.889C10.0052 22.3305 13.1393 23.75 16.5 23.75C22.9893 23.75 28.25 18.4893 28.25 12ZM7.75 15.5C7.75 14.8096 7.19036 14.25 6.5 14.25C5.80964 14.25 5.25 14.8096 5.25 15.5C5.25 16.1904 5.80964 16.75 6.5 16.75C7.19036 16.75 7.75 16.1904 7.75 15.5ZM16.4186 3.2878C16.7983 3.2878 17.1121 3.56996 17.1618 3.93603L17.1686 4.0378V12.3107L13.3869 16.0923C13.094 16.3852 12.6192 16.3852 12.3263 16.0923C12.06 15.8261 12.0358 15.4094 12.2536 15.1158L12.3263 15.0317L15.6686 11.6893V4.0378C15.6686 3.62359 16.0044 3.2878 16.4186 3.2878ZM7.25 10.5C7.25 9.80964 6.69036 9.25 6 9.25C5.30964 9.25 4.75 9.80964 4.75 10.5C4.75 11.1904 5.30964 11.75 6 11.75C6.69036 11.75 7.25 11.1904 7.25 10.5ZM7.75 4.25C8.44036 4.25 9 4.80964 9 5.5C9 6.19035 8.44036 6.75 7.75 6.75C7.05964 6.75 6.5 6.19035 6.5 5.5C6.5 4.80964 7.05964 4.25 7.75 4.25ZM13.25 2C13.25 1.30964 12.6904 0.749997 12 0.749997C11.3096 0.749997 10.75 1.30964 10.75 2C10.75 2.69035 11.3096 3.25 12 3.25C12.6904 3.25 13.25 2.69035 13.25 2Z" fill="#262626"/>
</g>
<defs>
<filter id="filter0_d_0_3105" x="0.75" y="0.25" width="31.5" height="31.5" filterUnits="userSpaceOnUse" color-interpolation-filters="sRGB">
<feFlood flood-opacity="0" result="BackgroundImageFix"/>
<feColorMatrix in="SourceAlpha" type="matrix" values="0 0 0 0 0 0 0 0 0 0 0 0 0 0 0 0 0 0 127 0" result="hardAlpha"/>
<feOffset dy="4"/>
<feGaussianBlur stdDeviation="2"/>
<feComposite in2="hardAlpha" operator="out"/>
<feColorMatrix type="matrix" values="0 0 0 0 0 0 0 0 0 0 0 0 0 0 0 0 0 0 0.25 0"/>
<feBlend mode="normal" in2="BackgroundImageFix" result="effect1_dropShadow_0_3105"/>
<feBlend mode="normal" in="SourceGraphic" in2="effect1_dropShadow_0_3105" result="shape"/>
</filter>
</defs>
</svg>
