<svg width="19" height="8" viewBox="0 0 19 8" fill="none" xmlns="http://www.w3.org/2000/svg">
<path fill-rule="evenodd" clip-rule="evenodd" d="M14.5 0C16.7091 0 18.5 1.79086 18.5 4C18.5 6.20914 16.7091 8 14.5 8C13.2418 8 11.7084 7.02693 9.89959 5.08078L9.60439 4.75802C7.69402 6.91934 6.07589 8 4.75 8C2.54086 8 0.75 6.20914 0.75 4C0.75 1.79086 2.54086 0 4.75 0C6.07589 0 7.69402 1.08066 9.60439 3.24198C11.5425 1.08066 13.1741 0 14.5 0ZM4.75 1C3.09315 1 1.75 2.34315 1.75 4C1.75 5.65685 3.09315 7 4.75 7C5.69504 7 7.0506 6.10242 8.7197 4.24739L8.93917 4L8.7197 3.75261C7.0506 1.89758 5.69504 1 4.75 1ZM10.7107 3.51623C12.3027 1.82188 13.5943 1 14.5 1C16.1569 1 17.5 2.34315 17.5 4C17.5 5.65685 16.1569 7 14.5 7C13.5532 7 12.1845 6.1017 10.4917 4.2473L10.2691 4L10.4917 3.7527L10.7107 3.51623Z" fill="white"/>
</svg>
