<svg width="18" height="17" viewBox="0 0 18 17" fill="none" xmlns="http://www.w3.org/2000/svg">
<path fill-rule="evenodd" clip-rule="evenodd" d="M17 4.5C17 2.01472 14.9853 0 12.5 0H5.25C2.76472 0 0.75 2.01472 0.75 4.5V11.75C0.75 14.2353 2.76472 16.25 5.25 16.25H12.5C14.9853 16.25 17 14.2353 17 11.75V4.5ZM5.25 1H8.25V15.25H5.25C3.317 15.25 1.75 13.683 1.75 11.75V4.5C1.75 2.567 3.317 1 5.25 1ZM16 8.625H9.25V15.25H12.5C14.433 15.25 16 13.683 16 11.75V8.625ZM9.25 1H12.5C14.433 1 16 2.567 16 4.5V7.625H9.25V1Z" fill="white"/>
</svg>
