<svg width="18" height="18" viewBox="0 0 18 18" fill="none" xmlns="http://www.w3.org/2000/svg">
<path fill-rule="evenodd" clip-rule="evenodd" d="M12 0.75C13.6569 0.75 15 2.09315 15 3.75V12C15 13.6569 13.6569 15 12 15H3.75C2.09315 15 0.75 13.6569 0.75 12V3.75C0.75 2.09315 2.09315 0.75 3.75 0.75H12ZM16.0009 3.51468C16.6141 4.06398 17 4.86193 17 5.75V14C17 15.6569 15.6569 17 14 17H5.75C4.86145 17 4.06313 16.6137 3.51381 15.9999L14 16C15.1046 16 16 15.1046 16 14L16.0009 3.51468ZM3.75 1.75H12C13.1046 1.75 14 2.64543 14 3.75V12C14 13.1046 13.1046 14 12 14H3.75C2.64543 14 1.75 13.1046 1.75 12V3.75C1.75 2.64543 2.64543 1.75 3.75 1.75Z" fill="white"/>
</svg>
